# xmcd
#
# Track frame offsets:
#  150
#  17865
#  43342
#
# Disc length: 964 seconds
#
# Revision: 0
# Processed by: cddbd v1.5.1PL2 Copyright (c) Steve Scherf et al.
# Submitted via: Collectorz.com_Music_Collector 6.9
#
DISCID=2203c203
DTITLE=Lupine Howl - Vaporizer
DYEAR=1999
DGENRE=
TTITLE0=Vaporizer
TTITLE1=Mexican Cantina
TTITLE2=Vaporizer (long version)
EXTD=
EXTT0=
EXTT1=
EXTT2=
PLAYORDER=
